<svg width="30" height="30" viewBox="0 0 30 30" fill="none" xmlns="http://www.w3.org/2000/svg">
<path d="M26.25 15C26.25 12.6493 25.5138 10.3577 24.1446 8.44698C22.7754 6.53625 20.8421 5.1024 18.6161 4.34681C16.3902 3.59123 13.9836 3.55187 11.7341 4.23427C9.4847 4.91666 7.50553 6.28653 6.07459 8.15147C4.64365 10.0164 3.83283 12.2827 3.75601 14.6321C3.67919 16.9815 4.34023 19.296 5.64628 21.2504C6.95233 23.2049 8.83779 24.7011 11.0378 25.529C13.2379 26.3569 15.642 26.4748 17.9125 25.8663" stroke="#222222" stroke-width="2.5" stroke-linecap="round"/>
<path d="M15 20C17.7614 20 20 17.7614 20 15C20 12.2386 17.7614 10 15 10C12.2386 10 10 12.2386 10 15C10 17.7614 12.2386 20 15 20Z" stroke="#222222" stroke-width="2.5"/>
<path d="M20 11.25V16.875C20 17.7038 20.3292 18.4987 20.9153 19.0847C21.5013 19.6708 22.2962 20 23.125 20C23.9538 20 24.7487 19.6708 25.3347 19.0847C25.9208 18.4987 26.25 17.7038 26.25 16.875V15" stroke="#222222" stroke-width="2.5" stroke-linecap="round"/>
</svg>
